<svg width="309" height="88" viewBox="0 0 189 38" fill="none" xmlns="http://www.w3.org/2000/svg">
<path d="M9.88693 1.23372C11.2345 1.23372 12.3958 1.4631 13.3707 1.92186C14.3599 2.38062 15.1125 3.03293 15.6286 3.87877C16.1447 4.71027 16.4028 5.68514 16.4028 6.80337C16.4028 7.90727 16.1447 8.88214 15.6286 9.72798C15.1125 10.5595 14.3599 11.2046 13.3707 11.6634C12.3958 12.1221 11.2345 12.3515 9.88693 12.3515H2.89798V8.78178H9.60737C10.3242 8.78178 10.8833 8.60975 11.2847 8.26568C11.6861 7.90727 11.8868 7.41983 11.8868 6.80337C11.8868 6.17258 11.6861 5.68514 11.2847 5.34107C10.8833 4.98266 10.3242 4.80346 9.60737 4.80346H3.28506L5.28498 2.73903V17.3621H0.833556V1.23372H9.88693Z" fill="white"/>
<path d="M24.9498 1.23372V15.3836L22.9499 13.4052H35.0139V17.3621H20.4984V1.23372H24.9498Z" fill="white"/>
<path d="M46.1301 17.3621L47.5613 13.7708H55.7479V17.3621H46.1301ZM50.7911 1.23372L58.1241 17.3621H53.3716L47.2213 3.12611H48.5116L42.3398 17.3621H37.5873L44.9204 1.23372H50.7911Z" fill="white"/>
<path d="M64.2725 3.19062H68.7455V17.3621H64.2725V3.19062ZM58.1222 1.23372H74.8957V5.19054H58.1222V1.23372Z" fill="white"/>
<path d="M81.1397 7.83559H92.8382V11.5989H81.1397V7.83559ZM93.2467 1.23372V4.997H81.2903L83.4192 2.86806V17.3621H78.9678V1.23372H93.2467Z" fill="white"/>
<path d="M106.421 17.7061C104.515 17.7061 102.837 17.3549 101.389 16.6524C99.9557 15.9499 98.8375 14.9679 98.0347 13.7063C97.2462 12.4447 96.8519 10.9752 96.8519 9.29789C96.8519 7.62054 97.2462 6.15107 98.0347 4.88948C98.8375 3.62788 99.9557 2.64585 101.389 1.94337C102.837 1.24089 104.515 0.889648 106.421 0.889648C108.342 0.889648 110.02 1.24089 111.453 1.94337C112.887 2.64585 114.005 3.62788 114.808 4.88948C115.611 6.15107 116.012 7.62054 116.012 9.29789C116.012 10.9752 115.611 12.4447 114.808 13.7063C114.005 14.9679 112.887 15.9499 111.453 16.6524C110.02 17.3549 108.342 17.7061 106.421 17.7061ZM106.421 13.7278C107.468 13.7278 108.371 13.5486 109.131 13.1902C109.891 12.8318 110.471 12.3228 110.873 11.6634C111.289 11.0039 111.496 10.2154 111.496 9.29789C111.496 8.38036 111.289 7.59187 110.873 6.9324C110.471 6.27293 109.891 5.76399 109.131 5.40558C108.371 5.04718 107.468 4.86797 106.421 4.86797C105.389 4.86797 104.493 5.04718 103.733 5.40558C102.974 5.76399 102.386 6.27293 101.97 6.9324C101.554 7.59187 101.346 8.38036 101.346 9.29789C101.346 10.2154 101.554 11.0039 101.97 11.6634C102.386 12.3228 102.974 12.8318 103.733 13.1902C104.493 13.5486 105.389 13.7278 106.421 13.7278Z" fill="white"/>
<path d="M123.536 8.28718H129.406C130.123 8.28718 130.682 8.12231 131.084 7.79258C131.485 7.46284 131.686 7.00408 131.686 6.41629C131.686 5.81417 131.485 5.35541 131.084 5.04001C130.682 4.71027 130.123 4.54541 129.406 4.54541H122.912L124.912 2.41646V17.3621H120.46V1.23372H130.03C131.263 1.23372 132.338 1.45593 133.256 1.90036C134.173 2.33045 134.89 2.93257 135.406 3.70673C135.922 4.46656 136.18 5.36974 136.18 6.41629C136.18 7.43417 135.922 8.33019 135.406 9.10435C134.89 9.87851 134.173 10.4806 133.256 10.9107C132.338 11.3408 131.263 11.5559 130.03 11.5559H123.536V8.28718ZM125.944 9.814H130.955L136.739 17.3621H131.578L125.944 9.814Z" fill="white"/>
<path d="M164.45 1.23372V17.3621H160.214V2.82505L161.16 2.93257L154.924 17.3621H150.408L144.15 2.97558L145.118 2.86806V17.3621H140.881V1.23372H147.763L153.547 15.0826H151.827L157.569 1.23372H164.45Z" fill="white"/>
<path d="M176.707 17.3621L178.236 13.7708H186.457V17.3621H176.707ZM181.338 1.23372L188.671 17.3621H183.919L177.768 3.12611H179.059L172.887 17.3621H168.134L175.467 1.23372H181.338Z" fill="white"/>


<path d="M19.1967 29.9875C19.0395 31.4028 18.5534 32.6465 17.7386 33.7187C16.9238 34.7765 15.8516 35.5985 14.5221 36.1846C13.2069 36.7707 11.6916 37.0638 9.97617 37.0638C8.10347 37.0638 6.46664 36.7136 5.06569 36.0131C3.66473 35.3126 2.57113 34.3334 1.78488 33.0754C1.01293 31.8174 0.626953 30.3521 0.626953 28.6795C0.626953 27.0069 1.01293 25.5417 1.78488 24.2837C2.57113 23.0257 3.66473 22.0464 5.06569 21.346C6.46664 20.6455 8.10347 20.2952 9.97617 20.2952C11.6916 20.2952 13.2069 20.5883 14.5221 21.1744C15.8516 21.7605 16.9238 22.5897 17.7386 23.6618C18.5534 24.7197 19.0395 25.9562 19.1967 27.3715H14.7366C14.5936 26.6853 14.3148 26.1063 13.9003 25.6346C13.4857 25.1485 12.9425 24.7769 12.2706 24.5195C11.613 24.2622 10.8482 24.1336 9.97617 24.1336C8.97549 24.1336 8.11062 24.3194 7.38155 24.6911C6.65248 25.0485 6.09496 25.5703 5.70898 26.2564C5.32301 26.9283 5.13002 27.736 5.13002 28.6795C5.13002 29.623 5.32301 30.4379 5.70898 31.124C6.09496 31.7959 6.65248 32.3177 7.38155 32.6894C8.11062 33.0468 8.97549 33.2255 9.97617 33.2255C10.8482 33.2255 11.613 33.104 12.2706 32.8609C12.9425 32.6179 13.4857 32.2534 13.9003 31.7673C14.3148 31.2813 14.5936 30.688 14.7366 29.9875H19.1967Z" fill="white"/>
<path d="M31.475 37.0638C29.5737 37.0638 27.9011 36.7136 26.4573 36.0131C25.0277 35.3126 23.9127 34.3334 23.1121 33.0754C22.3259 31.8174 21.9327 30.3521 21.9327 28.6795C21.9327 27.0069 22.3259 25.5417 23.1121 24.2837C23.9127 23.0257 25.0277 22.0464 26.4573 21.346C27.9011 20.6455 29.5737 20.2952 31.475 20.2952C33.3905 20.2952 35.0631 20.6455 36.4927 21.346C37.9222 22.0464 39.0372 23.0257 39.8378 24.2837C40.6383 25.5417 41.0386 27.0069 41.0386 28.6795C41.0386 30.3521 40.6383 31.8174 39.8378 33.0754C39.0372 34.3334 37.9222 35.3126 36.4927 36.0131C35.0631 36.7136 33.3905 37.0638 31.475 37.0638ZM31.475 33.0968C32.5185 33.0968 33.4191 32.9181 34.1768 32.5607C34.9345 32.2033 35.5134 31.6959 35.9137 31.0383C36.3283 30.3807 36.5355 29.5944 36.5355 28.6795C36.5355 27.7646 36.3283 26.9784 35.9137 26.3208C35.5134 25.6632 34.9345 25.1557 34.1768 24.7983C33.4191 24.4409 32.5185 24.2622 31.475 24.2622C30.4457 24.2622 29.5522 24.4409 28.7946 24.7983C28.0369 25.1557 27.4508 25.6632 27.0362 26.3208C26.6217 26.9784 26.4144 27.7646 26.4144 28.6795C26.4144 29.5944 26.6217 30.3807 27.0362 31.0383C27.4508 31.6959 28.0369 32.2033 28.7946 32.5607C29.5522 32.9181 30.4457 33.0968 31.475 33.0968Z" fill="white"/>
<path d="M68.118 20.6383V36.7207H63.8937V22.2251L64.8372 22.3323L58.6186 36.7207H54.1156L47.8756 22.3752L48.8406 22.268V36.7207H44.6163V20.6383H51.4781L57.2463 34.4477H55.5308L61.2562 20.6383H68.118Z" fill="white"/>
<path d="M95.9153 20.6383V36.7207H91.691V22.2251L92.6345 22.3323L86.416 36.7207H81.913L75.673 22.3752L76.6379 22.268V36.7207H72.4136V20.6383H79.2755L85.0437 34.4477H83.3282L89.0535 20.6383H95.9153Z" fill="white"/>
<path d="M104.435 29.5372C104.435 30.2663 104.571 30.9025 104.843 31.4457C105.129 31.9746 105.543 32.382 106.086 32.6679C106.644 32.9539 107.323 33.0968 108.124 33.0968C108.938 33.0968 109.617 32.9539 110.161 32.6679C110.704 32.382 111.111 31.9746 111.383 31.4457C111.655 30.9025 111.79 30.2663 111.79 29.5372V20.6383H116.25V29.7517C116.25 31.2241 115.907 32.5107 115.221 33.6114C114.549 34.6979 113.606 35.5485 112.391 36.1632C111.176 36.7636 109.753 37.0638 108.124 37.0638C106.508 37.0638 105.086 36.7636 103.856 36.1632C102.641 35.5485 101.691 34.6979 101.004 33.6114C100.333 32.5107 99.9966 31.2241 99.9966 29.7517V20.6383H104.435V29.5372Z" fill="white"/>
<path d="M135.226 33.6114L133.854 33.8902V20.6383H138.164V36.7207H132.567L123.282 23.4903L124.633 23.2115V36.7207H120.323V20.6383H126.07L135.226 33.6114Z" fill="white"/>
<path d="M142.446 20.6383H146.884V36.7207H142.446V20.6383Z" fill="white"/>
<path d="M156.205 22.5897H160.665V36.7207H156.205V22.5897ZM150.073 20.6383H166.798V24.5839H150.073V20.6383Z" fill="white"/>
<path d="M176.177 36.7207V28.8939H180.637V36.7207H176.177ZM168.629 20.6383H173.561L179.393 28.0577H177.399L183.21 20.6383H188.142L179.822 31.2098L176.97 31.2527L168.629 20.6383Z" fill="white"/>
</svg>
