<svg width="650" height="50" viewBox="0 0 624 28" fill="none" xmlns="http://www.w3.org/2000/svg">
<path d="M346.997 15.8461C346.74 18.16 345.946 20.1934 344.613 21.9464C343.281 23.6758 341.528 25.0197 339.355 25.9779C337.204 26.9361 334.727 27.4153 331.922 27.4153C328.861 27.4153 326.185 26.8428 323.894 25.6975C321.604 24.5523 319.816 22.9513 318.53 20.8946C317.268 18.8379 316.637 16.4422 316.637 13.7077C316.637 10.9731 317.268 8.57761 318.53 6.52088C319.816 4.46415 321.604 2.86307 323.894 1.71798C326.185 0.572713 328.861 0 331.922 0C334.727 0 337.204 0.479195 339.355 1.43742C341.528 2.39565 343.281 3.75133 344.613 5.50412C345.946 7.23371 346.74 9.25528 346.997 11.5692H339.705C339.472 10.4473 339.016 9.50069 338.338 8.72949C337.66 7.93476 336.772 7.32722 335.674 6.9064C334.599 6.48573 333.348 6.27548 331.922 6.27548C330.286 6.27548 328.872 6.57925 327.68 7.18695C326.488 7.77127 325.577 8.62437 324.946 9.74609C324.315 10.8446 323.999 12.1651 323.999 13.7077C323.999 15.2502 324.315 16.5825 324.946 17.7042C325.577 18.8027 326.488 19.6558 327.68 20.2635C328.872 20.8479 330.286 21.14 331.922 21.14C333.348 21.14 334.599 20.9414 335.674 20.5439C336.772 20.1466 337.66 19.5507 338.338 18.756C339.016 17.9614 339.472 16.9914 339.705 15.8461H346.997Z" fill="white"/>
<path d="M367.071 27.4153C363.963 27.4153 361.228 26.8428 358.868 25.6975C356.53 24.5523 354.708 22.9513 353.399 20.8946C352.113 18.8379 351.47 16.4422 351.47 13.7077C351.47 10.9731 352.113 8.57761 353.399 6.52088C354.708 4.46415 356.53 2.86307 358.868 1.71798C361.228 0.572713 363.963 0 367.071 0C370.203 0 372.938 0.572713 375.275 1.71798C377.612 2.86307 379.435 4.46415 380.744 6.52088C382.053 8.57761 382.707 10.9731 382.707 13.7077C382.707 16.4422 382.053 18.8379 380.744 20.8946C379.435 22.9513 377.612 24.5523 375.275 25.6975C372.938 26.8428 370.203 27.4153 367.071 27.4153ZM367.071 20.9296C368.777 20.9296 370.25 20.6374 371.489 20.0531C372.727 19.4688 373.674 18.6392 374.328 17.5641C375.006 16.489 375.345 15.2035 375.345 13.7077C375.345 12.2119 375.006 10.9265 374.328 9.85138C373.674 8.77625 372.727 7.94653 371.489 7.36221C370.25 6.77789 368.777 6.48573 367.071 6.48573C365.388 6.48573 363.928 6.77789 362.689 7.36221C361.45 7.94653 360.492 8.77625 359.814 9.85138C359.137 10.9265 358.798 12.2119 358.798 13.7077C358.798 15.2035 359.137 16.489 359.814 17.5641C360.492 18.6392 361.45 19.4688 362.689 20.0531C363.928 20.6374 365.388 20.9296 367.071 20.9296Z" fill="white"/>
<path d="M426.98 0.560944V26.8544H420.073V3.15523L421.616 3.3305L411.449 26.8544H404.087L393.885 3.40064L395.463 3.22537V26.8544H388.556V0.560944H399.775L409.205 23.1382H406.401L415.761 0.560944H426.98Z" fill="white"/>
<path d="M472.426 0.560944V26.8544H465.52V3.15523L467.062 3.3305L456.895 26.8544H449.533L439.332 3.40064L440.909 3.22537V26.8544H434.003V0.560944H445.221L454.652 23.1382H451.847L461.208 0.560944H472.426Z" fill="white"/>
<path d="M486.355 15.1099C486.355 16.302 486.577 17.3421 487.022 18.2302C487.49 19.0949 488.167 19.761 489.054 20.2284C489.967 20.696 491.077 20.9296 492.386 20.9296C493.717 20.9296 494.827 20.696 495.717 20.2284C496.604 19.761 497.27 19.0949 497.715 18.2302C498.159 17.3421 498.38 16.302 498.38 15.1099V0.560944H505.672V15.4606C505.672 17.8679 505.111 19.9714 503.989 21.7709C502.891 23.5473 501.349 24.9379 499.363 25.9429C497.376 26.9245 495.05 27.4153 492.386 27.4153C489.744 27.4153 487.419 26.9245 485.409 25.9429C483.422 24.9379 481.869 23.5473 480.746 21.7709C479.649 19.9714 479.099 17.8679 479.099 15.4606V0.560944H486.355V15.1099Z" fill="white"/>
<path d="M536.696 21.7709L534.453 22.2268V0.560944H541.499V26.8544H532.349L517.168 5.22374L519.377 4.76792V26.8544H512.331V0.560944H521.727L536.696 21.7709Z" fill="white"/>
<path d="M548.5 0.560944H555.756V26.8544H548.5V0.560944Z" fill="white"/>
<path d="M570.995 3.75133H578.287V26.8544H570.995V3.75133ZM560.97 0.560944H588.314V7.01169H560.97V0.560944Z" fill="white"/>
<path d="M603.648 26.8544V14.0582H610.939V26.8544H603.648ZM591.307 0.560944H599.371L608.906 12.6911H605.645L615.146 0.560944H623.209L609.607 17.8445L604.944 17.9146L591.307 0.560944Z" fill="white"/>
<path d="M14.8015 0.953537C17.0047 0.953537 18.9034 1.32856 20.4972 2.07859C22.1145 2.82863 23.3449 3.8951 24.1887 5.27798C25.0325 6.63742 25.4545 8.23126 25.4545 10.0595C25.4545 11.8643 25.0325 13.4581 24.1887 14.841C23.3449 16.2004 22.1145 17.2551 20.4972 18.0052C18.9034 18.7552 17.0047 19.1302 14.8015 19.1302H3.37517V13.294H14.3445C15.5164 13.294 16.4305 13.0128 17.0868 12.4502C17.743 11.8643 18.0712 11.0673 18.0712 10.0595C18.0712 9.02818 17.743 8.23126 17.0868 7.66873C16.4305 7.08276 15.5164 6.78978 14.3445 6.78978H4.00801L7.27772 3.4146V27.3222H0V0.953537H14.8015Z" fill="white"/>
<path d="M39.4281 0.953537V24.0875L36.1585 20.8529H55.8821V27.3222H32.1505V0.953537H39.4281Z" fill="white"/>
<path d="M74.0563 27.3222L76.3962 21.4507H89.7806V27.3222H74.0563ZM81.6766 0.953537L93.6655 27.3222H85.8956L75.8403 4.04744H77.9498L67.8594 27.3222H60.0895L72.0785 0.953537H81.6766Z" fill="white"/>
<path d="M103.718 4.15291H111.031V27.3222H103.718V4.15291ZM93.6624 0.953537H121.086V7.42262H93.6624V0.953537Z" fill="white"/>
<path d="M131.294 11.7471H150.42V17.8998H131.294V11.7471ZM151.088 0.953537V7.1062H131.54L135.021 3.62555V27.3222H127.743V0.953537H151.088Z" fill="white"/>
<path d="M172.627 27.8846C169.511 27.8846 166.768 27.3104 164.4 26.1619C162.057 25.0133 160.229 23.4078 158.916 21.3452C157.627 19.2826 156.982 16.8801 156.982 14.1378C156.982 11.3955 157.627 8.99301 158.916 6.93041C160.229 4.8678 162.057 3.26226 164.4 2.11376C166.768 0.965259 169.511 0.391006 172.627 0.391006C175.768 0.391006 178.511 0.965259 180.854 2.11376C183.198 3.26226 185.026 4.8678 186.339 6.93041C187.652 8.99301 188.308 11.3955 188.308 14.1378C188.308 16.8801 187.652 19.2826 186.339 21.3452C185.026 23.4078 183.198 25.0133 180.854 26.1619C178.511 27.3104 175.768 27.8846 172.627 27.8846ZM172.627 21.3804C174.339 21.3804 175.815 21.0874 177.058 20.5014C178.3 19.9155 179.249 19.0833 179.906 18.0052C180.586 16.927 180.924 15.6379 180.924 14.1378C180.924 12.6377 180.586 11.3486 179.906 10.2704C179.249 9.19225 178.3 8.36017 177.058 7.7742C175.815 7.18824 174.339 6.89525 172.627 6.89525C170.94 6.89525 169.475 7.18824 168.232 7.7742C166.992 8.36017 166.03 9.19225 165.35 10.2704C164.67 11.3486 164.33 12.6377 164.33 14.1378C164.33 15.6379 164.67 16.927 165.35 18.0052C166.03 19.0833 166.992 19.9155 168.232 20.5014C169.475 21.0874 170.94 21.3804 172.627 21.3804Z" fill="white"/>
<path d="M200.609 12.4854H210.206C211.378 12.4854 212.292 12.2158 212.949 11.6768C213.605 11.1377 213.933 10.3876 213.933 9.42663C213.933 8.44221 213.605 7.69217 212.949 7.17652C212.292 6.63742 211.378 6.36789 210.206 6.36789H199.589L202.858 2.88722V27.3222H195.58V0.953537H211.226C213.242 0.953537 214.999 1.31683 216.5 2.04344C217.999 2.7466 219.172 3.73102 220.015 4.99671C220.859 6.23897 221.281 7.7156 221.281 9.42663C221.281 11.0908 220.859 12.5557 220.015 13.8214C219.172 15.0871 217.999 16.0715 216.5 16.7746C214.999 17.4778 213.242 17.8295 211.226 17.8295H200.609V12.4854ZM204.546 14.9816H212.738L222.195 27.3222H213.757L204.546 14.9816Z" fill="white"/>
<path d="M267.5 0.953537V27.3222H260.574V3.55524L262.121 3.73102L251.926 27.3222H244.542L234.311 3.80134L235.894 3.62555V27.3222H228.966V0.953537H240.218L249.674 23.5954H246.862L256.25 0.953537H267.5Z" fill="white"/>
<path d="M287.539 27.3222L290.039 21.4507H303.48V27.3222H287.539ZM295.11 0.953537L307.099 27.3222H299.33L289.274 4.04744H291.384L281.294 27.3222H273.523L285.512 0.953537H295.11Z" fill="white"/>
</svg>
